<svg width="49" height="47" viewBox="0 0 49 47" fill="none" xmlns="http://www.w3.org/2000/svg">
<ellipse cx="24.0449" cy="23.4" rx="24.0449" ry="23.4" fill="url(#paint0_linear_66_429)"/>
<path d="M17.347 12.1832C17.6744 11.8181 17.6357 11.2638 17.2605 10.9451C16.8853 10.6265 16.3157 10.6641 15.9883 11.0292L14.4352 12.761C13.5542 13.7434 13.0562 14.9959 13.0283 16.2995L12.9602 19.4791C12.9498 19.9636 13.345 20.3646 13.8428 20.3747C14.3407 20.3848 14.7528 20.0002 14.7631 19.5157L14.8313 16.336C14.8504 15.4441 15.1911 14.5872 15.7939 13.915L17.347 12.1832Z" fill="white"/>
<path fill-rule="evenodd" clip-rule="evenodd" d="M17.1164 18.3699C17.2834 15.7717 19.4974 13.7476 22.1725 13.7476H22.8427V12.8701C22.8427 12.2239 23.3809 11.7001 24.0449 11.7001C24.7089 11.7001 25.2472 12.2239 25.2472 12.8701V13.7476H25.9173C28.5924 13.7476 30.8064 15.7717 30.9734 18.3699L31.2391 22.5041C31.3404 24.0803 31.8842 25.5993 32.8112 26.8955C33.6488 28.0668 32.9031 29.6844 31.4473 29.8544L27.3511 30.3328V31.5901C27.3511 33.367 25.8709 34.8076 24.0449 34.8076C22.219 34.8076 20.7387 33.367 20.7387 31.5901V30.3328L16.6425 29.8544C15.1867 29.6844 14.441 28.0668 15.2786 26.8955C16.2056 25.5993 16.7494 24.0803 16.8507 22.5041L17.1164 18.3699ZM22.1725 15.5026C20.4497 15.5026 19.0238 16.8061 18.9162 18.4795L18.6505 22.6136C18.5286 24.5104 17.8743 26.3382 16.7588 27.898C16.6983 27.9827 16.7522 28.0996 16.8574 28.1119L21.351 28.6367C23.1405 28.8457 24.9493 28.8457 26.7388 28.6367L31.2324 28.1119C31.3376 28.0996 31.3915 27.9827 31.331 27.898C30.2155 26.3382 29.5612 24.5104 29.4393 22.6136L29.1736 18.4795C29.066 16.8061 27.6401 15.5026 25.9173 15.5026H22.1725ZM24.0449 33.0526C23.2149 33.0526 22.5421 32.3978 22.5421 31.5901V30.7126H25.5477V31.5901C25.5477 32.3978 24.8749 33.0526 24.0449 33.0526Z" fill="white"/>
<path d="M30.8293 10.9451C30.4541 11.2638 30.4154 11.8181 30.7428 12.1832L32.2959 13.915C32.8987 14.5872 33.2394 15.4441 33.2585 16.336L33.3267 19.5157C33.3371 20.0002 33.7491 20.3848 34.247 20.3747C34.7448 20.3646 35.14 19.9636 35.1297 19.4791L35.0615 16.2995C35.0336 14.9959 34.5356 13.7434 33.6546 12.761L32.1015 11.0292C31.7741 10.6641 31.2045 10.6265 30.8293 10.9451Z" fill="white"/>
<defs>
<linearGradient id="paint0_linear_66_429" x1="1.55792e-06" y1="-6.435" x2="36.4221" y2="52.3771" gradientUnits="userSpaceOnUse">
<stop stop-color="#8E0B0B"/>
<stop offset="0.0001" stop-color="#741010"/>
<stop offset="1" stop-color="#E11A1A"/>
</linearGradient>
</defs>
</svg>
