<svg width="1000" height="1000" viewBox="0 0 1000 1000" fill="none" xmlns="http://www.w3.org/2000/svg">
<g filter="url(#filter0_i_204_464)">
<circle cx="500" cy="500" r="500" fill="#849A47"/>
</g>
<g clip-path="url(#clip0_204_464)">
<path d="M312.5 437.5C312.499 406.538 320.166 376.057 334.815 348.78C349.465 321.503 370.641 298.278 396.453 281.179C422.266 264.08 451.911 253.64 482.742 250.79C513.572 247.94 544.629 252.769 573.138 264.847C601.648 276.924 626.723 295.874 646.124 320.004C665.525 344.133 678.649 372.692 684.324 403.13C689.999 433.567 688.047 464.936 678.645 494.436C669.242 523.936 652.68 550.648 630.438 572.187C624.094 578.312 619.219 584.687 616.281 591.531L592.469 646.812C591.261 649.614 589.258 652.001 586.709 653.678C584.161 655.355 581.176 656.249 578.125 656.25C582.269 656.25 586.243 657.896 589.174 660.826C592.104 663.757 593.75 667.731 593.75 671.875C593.75 676.019 592.104 679.993 589.174 682.924C586.243 685.854 582.269 687.5 578.125 687.5C582.269 687.5 586.243 689.146 589.174 692.076C592.104 695.007 593.75 698.981 593.75 703.125C593.75 707.269 592.104 711.243 589.174 714.174C586.243 717.104 582.269 718.75 578.125 718.75L571.125 732.719C568.532 737.909 564.545 742.274 559.61 745.326C554.676 748.379 548.99 749.997 543.188 750H456.813C451.011 749.997 445.324 748.379 440.39 745.326C435.456 742.274 431.469 737.909 428.875 732.719L421.875 718.75C417.731 718.75 413.757 717.104 410.827 714.174C407.896 711.243 406.25 707.269 406.25 703.125C406.25 698.981 407.896 695.007 410.827 692.076C413.757 689.146 417.731 687.5 421.875 687.5C417.731 687.5 413.757 685.854 410.827 682.924C407.896 679.993 406.25 676.019 406.25 671.875C406.25 667.731 407.896 663.757 410.827 660.826C413.757 657.896 417.731 656.25 421.875 656.25C418.819 656.255 415.828 655.364 413.273 653.687C410.717 652.009 408.71 649.619 407.5 646.812L383.719 591.5C380.314 584.195 375.504 577.633 369.563 572.187C351.488 554.724 337.12 533.796 327.316 510.655C317.511 487.513 312.472 462.633 312.5 437.5ZM500 281.25C468.88 281.245 438.468 290.532 412.66 307.922C386.852 325.312 366.825 350.012 355.146 378.857C343.466 407.702 340.666 439.378 347.104 469.825C353.542 500.271 368.925 528.102 391.281 549.75C399.5 557.687 407.344 567.375 412.406 579.156L432.188 625H567.875L587.625 579.156C592.688 567.375 600.531 557.687 608.75 549.75C631.109 528.1 646.492 500.267 652.929 469.817C659.366 439.367 656.563 407.689 644.88 378.843C633.196 349.997 613.165 325.297 587.352 307.909C561.54 290.521 531.123 281.238 500 281.25Z" fill="white"/>
</g>
<defs>
<filter id="filter0_i_204_464" x="0" y="0" width="1020" height="1020" filterUnits="userSpaceOnUse" color-interpolation-filters="sRGB">
<feFlood flood-opacity="0" result="BackgroundImageFix"/>
<feBlend mode="normal" in="SourceGraphic" in2="BackgroundImageFix" result="shape"/>
<feColorMatrix in="SourceAlpha" type="matrix" values="0 0 0 0 0 0 0 0 0 0 0 0 0 0 0 0 0 0 127 0" result="hardAlpha"/>
<feMorphology radius="20" operator="erode" in="SourceAlpha" result="effect1_innerShadow_204_464"/>
<feOffset dx="20" dy="20"/>
<feGaussianBlur stdDeviation="20"/>
<feComposite in2="hardAlpha" operator="arithmetic" k2="-1" k3="1"/>
<feColorMatrix type="matrix" values="0 0 0 0 0 0 0 0 0 0 0 0 0 0 0 0 0 0 0.25 0"/>
<feBlend mode="normal" in2="shape" result="effect1_innerShadow_204_464"/>
</filter>
<clipPath id="clip0_204_464">
<rect width="500" height="500" fill="white" transform="translate(250 250)"/>
</clipPath>
</defs>
</svg>
