<svg width="1000" height="1000" viewBox="0 0 1000 1000" fill="none" xmlns="http://www.w3.org/2000/svg">
<g filter="url(#filter0_i_204_465)">
<circle cx="500" cy="500" r="500" fill="#37AC74"/>
</g>
<g clip-path="url(#clip0_204_465)">
<path d="M660.063 589.229C634.375 587.854 621.521 557.292 615.271 538.542C609.729 522.563 601.396 494.438 595.146 477.438C587.854 457.646 585.771 456.25 581.604 456.25C572.917 456.25 566.312 480.896 559.729 499.313C545.833 537.5 535.417 579.521 498.604 579.521C466.667 579.521 452.438 554.854 442.354 540.271C432.979 526.396 427.438 523.271 418.75 523.271C407.646 523.271 402.438 532.979 392.354 550C386.458 559.729 379.854 569.792 372.229 576.396C370.146 578.125 352.771 591.667 336.458 589.583C327.083 588.188 320.479 582.646 320.479 573.271C320.479 560.417 334.729 557.979 342.708 554.854C349.646 552.438 357.979 539.938 362.146 532.979C373.271 513.896 387.5 488.896 419.438 488.896C447.563 488.896 461.104 506.938 471.521 521.188C480.896 534.021 486.458 544.438 497.229 544.792C506.25 545.146 518.75 511.104 526.042 487.5C537.146 451.396 551.729 418.063 580.896 418.063C620.146 418.063 631.604 472.917 643.75 514.938C645.479 521.188 649.646 534.375 650.688 536.104C656.25 547.917 660.771 555.562 665.625 557.979C671.188 561.104 680.208 567.021 677.438 577.438C675.688 585.417 668.396 589.583 660.063 589.229ZM500 250C361.813 250 250 361.813 250 500C250 638.188 361.813 750 500 750C638.188 750 750 638.188 750 500C750 361.813 638.188 250 500 250ZM500 708.688C472.593 708.693 445.454 703.299 420.132 692.813C394.811 682.328 371.803 666.956 352.423 647.577C333.044 628.197 317.672 605.189 307.187 579.868C296.701 554.546 291.307 527.407 291.313 500C291.307 472.593 296.701 445.454 307.187 420.132C317.672 394.811 333.044 371.803 352.423 352.423C371.803 333.044 394.811 317.672 420.132 307.187C445.454 296.701 472.593 291.307 500 291.313C527.407 291.307 554.546 296.701 579.868 307.187C605.189 317.672 628.197 333.044 647.577 352.423C666.956 371.803 682.328 394.811 692.813 420.132C703.299 445.454 708.693 472.593 708.688 500C708.693 527.407 703.299 554.546 692.813 579.868C682.328 605.189 666.956 628.197 647.577 647.577C628.197 666.956 605.189 682.328 579.868 692.813C554.546 703.299 527.407 708.693 500 708.688Z" fill="white"/>
</g>
<defs>
<filter id="filter0_i_204_465" x="0" y="0" width="1020" height="1020" filterUnits="userSpaceOnUse" color-interpolation-filters="sRGB">
<feFlood flood-opacity="0" result="BackgroundImageFix"/>
<feBlend mode="normal" in="SourceGraphic" in2="BackgroundImageFix" result="shape"/>
<feColorMatrix in="SourceAlpha" type="matrix" values="0 0 0 0 0 0 0 0 0 0 0 0 0 0 0 0 0 0 127 0" result="hardAlpha"/>
<feMorphology radius="20" operator="erode" in="SourceAlpha" result="effect1_innerShadow_204_465"/>
<feOffset dx="20" dy="20"/>
<feGaussianBlur stdDeviation="20"/>
<feComposite in2="hardAlpha" operator="arithmetic" k2="-1" k3="1"/>
<feColorMatrix type="matrix" values="0 0 0 0 0 0 0 0 0 0 0 0 0 0 0 0 0 0 0.25 0"/>
<feBlend mode="normal" in2="shape" result="effect1_innerShadow_204_465"/>
</filter>
<clipPath id="clip0_204_465">
<rect width="500" height="500" fill="white" transform="translate(250 250)"/>
</clipPath>
</defs>
</svg>
