<svg width="1000" height="1000" viewBox="0 0 1000 1000" fill="none" xmlns="http://www.w3.org/2000/svg">
<g filter="url(#filter0_i_204_463)">
<circle cx="500" cy="500" r="500" fill="#DBC719"/>
</g>
<path d="M712.898 287.102C656.719 230.922 565.809 230.922 509.695 287.102L445.348 351.449L479.215 385.316L543.562 320.969C579.289 285.242 639.586 281.457 679.031 320.969C718.543 360.48 714.758 420.711 679.031 456.438L614.684 520.785L648.617 554.719L712.965 490.371C769.012 434.191 769.012 343.281 712.898 287.102ZM456.504 679.031C420.777 714.758 360.48 718.543 321.035 679.031C281.523 639.52 285.309 579.289 321.035 543.562L385.383 479.215L351.449 445.281L287.102 509.629C230.922 565.809 230.922 656.719 287.102 712.832C343.281 768.945 434.191 769.012 490.305 712.832L554.652 648.484L520.785 614.617L456.504 679.031ZM332.855 299.055C331.857 298.066 330.509 297.511 329.104 297.511C327.698 297.511 326.35 298.066 325.352 299.055L299.055 325.352C298.066 326.35 297.511 327.698 297.511 329.104C297.511 330.509 298.066 331.857 299.055 332.855L667.211 701.012C669.27 703.07 672.656 703.07 674.715 701.012L701.012 674.715C703.07 672.656 703.07 669.27 701.012 667.211L332.855 299.055Z" fill="white"/>
<defs>
<filter id="filter0_i_204_463" x="0" y="0" width="1020" height="1020" filterUnits="userSpaceOnUse" color-interpolation-filters="sRGB">
<feFlood flood-opacity="0" result="BackgroundImageFix"/>
<feBlend mode="normal" in="SourceGraphic" in2="BackgroundImageFix" result="shape"/>
<feColorMatrix in="SourceAlpha" type="matrix" values="0 0 0 0 0 0 0 0 0 0 0 0 0 0 0 0 0 0 127 0" result="hardAlpha"/>
<feMorphology radius="20" operator="erode" in="SourceAlpha" result="effect1_innerShadow_204_463"/>
<feOffset dx="20" dy="20"/>
<feGaussianBlur stdDeviation="20"/>
<feComposite in2="hardAlpha" operator="arithmetic" k2="-1" k3="1"/>
<feColorMatrix type="matrix" values="0 0 0 0 0 0 0 0 0 0 0 0 0 0 0 0 0 0 0.25 0"/>
<feBlend mode="normal" in2="shape" result="effect1_innerShadow_204_463"/>
</filter>
</defs>
</svg>
