<svg width="1000" height="1000" viewBox="0 0 1000 1000" fill="none" xmlns="http://www.w3.org/2000/svg">
<g filter="url(#filter0_i_206_449)">
<circle cx="500" cy="500" r="500" fill="#A5B737"/>
</g>
<path d="M739.8 374.38L663 418.6V327.4C663 306.22 645.78 289 624.6 289H269.4C248.22 289 231 306.22 231 327.4V673C231 694.18 248.22 711.4 269.4 711.4H624.6C645.78 711.4 663 694.18 663 673V581.8L739.8 626.02C752.58 633.4 768.6 624.16 768.6 609.46V391C768.6 376.24 752.58 367 739.8 374.38ZM619.8 668.2H274.2V332.2H619.8V668.2ZM725.4 568L663 532.12V468.34L725.4 432.4V568ZM317.4 409H384.6C387.24 409 389.4 406.84 389.4 404.2V375.4C389.4 372.76 387.24 370.6 384.6 370.6H317.4C314.76 370.6 312.6 372.76 312.6 375.4V404.2C312.6 406.84 314.76 409 317.4 409Z" fill="white"/>
<defs>
<filter id="filter0_i_206_449" x="0" y="0" width="1020" height="1020" filterUnits="userSpaceOnUse" color-interpolation-filters="sRGB">
<feFlood flood-opacity="0" result="BackgroundImageFix"/>
<feBlend mode="normal" in="SourceGraphic" in2="BackgroundImageFix" result="shape"/>
<feColorMatrix in="SourceAlpha" type="matrix" values="0 0 0 0 0 0 0 0 0 0 0 0 0 0 0 0 0 0 127 0" result="hardAlpha"/>
<feMorphology radius="20" operator="erode" in="SourceAlpha" result="effect1_innerShadow_206_449"/>
<feOffset dx="20" dy="20"/>
<feGaussianBlur stdDeviation="20"/>
<feComposite in2="hardAlpha" operator="arithmetic" k2="-1" k3="1"/>
<feColorMatrix type="matrix" values="0 0 0 0 0 0 0 0 0 0 0 0 0 0 0 0 0 0 0.25 0"/>
<feBlend mode="normal" in2="shape" result="effect1_innerShadow_206_449"/>
</filter>
</defs>
</svg>
